<svg width="17" height="12" viewBox="0 0 17 12" fill="none" xmlns="http://www.w3.org/2000/svg">
<g id="Group 12">
<path id="Vector" d="M16.1197 9.47729C16.1547 9.62607 16.1733 9.78109 16.1733 9.94046C16.1733 11.0529 15.2717 11.9548 14.1592 11.9548C13.0896 11.9548 12.2145 11.1208 12.149 10.0676L12.829 9.96686C12.8429 10.6886 13.4344 11.2713 14.1592 11.2713C14.8929 11.2713 15.4899 10.6743 15.4899 9.94049C15.4899 9.81487 15.4723 9.69354 15.4399 9.57831L16.1197 9.47729Z" fill="#999999"/>
<path id="Vector_2" d="M2.19998 9.42117C2.29965 9.35703 2.41829 9.31982 2.54566 9.31982C2.72698 9.31982 2.89075 9.39522 3.0073 9.51633C3.07943 9.59138 3.13351 9.68398 3.16237 9.78708C3.17779 9.8421 3.18604 9.90015 3.18604 9.96013C3.18604 10.3138 2.89935 10.6005 2.54566 10.6005C2.19203 10.6005 1.90535 10.3138 1.90535 9.96013C1.90535 9.90015 1.9136 9.8421 1.92901 9.78708C1.97179 9.63443 2.06975 9.50481 2.19998 9.42117Z" fill="#999999"/>
<path id="Vector_3" d="M13.521 9.96004C13.521 9.92695 13.5236 9.89431 13.5284 9.86253L14.7384 9.68262C14.7546 9.71592 14.7678 9.75073 14.7779 9.78706C14.7933 9.8422 14.8015 9.90013 14.8015 9.96004C14.8015 10.3138 14.515 10.6005 14.1613 10.6005C13.8075 10.6005 13.521 10.3138 13.521 9.96004Z" fill="#999999"/>
<path id="Vector_4" d="M1.26572 6.57313C1.2562 5.7621 1.42702 5.07516 2.01278 5.00056C3.51658 4.8092 6.33289 4.67253 6.19601 5.65678C6.05937 6.64103 4.85631 7.76214 5.15707 8.29922C5.45784 8.83609 9.75048 8.80107 10.4067 8.41838C11.0629 8.03566 11.8558 5.3013 11.2543 3.6057C11.045 3.01526 10.9817 2.49846 10.9878 2.07496H10.3381C10.2729 2.1502 10.1769 2.198 10.0696 2.198H8.84828C8.65196 2.198 8.49282 2.03886 8.49282 1.84257C8.49282 1.64625 8.65196 1.48711 8.84828 1.48711H10.0696C10.1769 1.48711 10.2729 1.53492 10.3381 1.61015H11.04C11.0973 1.41515 11.2065 1.24344 11.3514 1.11008C11.3996 1.06576 11.4515 1.02575 11.5071 0.9905C11.6124 0.414071 11.9763 0 12.4211 0C12.9508 0 13.3657 0.587263 13.3657 1.3367C13.3657 1.97823 13.0619 2.50062 12.6422 2.6379C12.8589 2.92181 13.1458 3.24117 13.5238 3.59752C14.8536 4.85073 15.0681 6.39089 15.0546 7.3189C15.6598 7.57035 16.1417 8.08175 16.3408 8.73454C16.3927 8.90486 16.2805 9.08158 16.1043 9.10781L16.0006 9.12325L15.2836 9.22984L14.8996 9.28692L13.9979 9.42098L12.8762 9.5879L12.1598 9.69427L12.0559 9.70974C11.8808 9.73578 11.721 9.60125 11.7211 9.42427C11.7211 9.42317 11.7211 9.42207 11.7211 9.42096H4.46647C4.51446 9.59241 4.5402 9.77317 4.5402 9.96C4.5402 11.0616 3.64721 11.9546 2.54554 11.9546C1.4441 11.9546 0.551115 11.0616 0.551115 9.96C0.551115 9.77317 0.576851 9.59241 0.624844 9.42096H0.598686C0.374916 9.42096 0.174694 9.27891 0.10334 9.06656C0.0360985 8.86677 -0.000236511 8.65291 -0.000236511 8.43044C-0.000259399 7.58615 0.524534 6.86417 1.26572 6.57313ZM12.2682 2.06427C12.3177 2.1086 12.3703 2.1328 12.4211 2.1328C12.6118 2.1328 12.8252 1.79225 12.8252 1.33667C12.8252 0.881095 12.6118 0.540516 12.4211 0.540516C12.2332 0.540516 12.023 0.871576 12.0172 1.31742C12.0169 1.3237 12.0169 1.33019 12.0169 1.33667C12.0169 1.67074 12.1318 1.94297 12.2682 2.06427ZM2.54554 11.276C3.27116 11.276 3.86148 10.6857 3.86148 9.96004C3.86148 9.76826 3.82019 9.58576 3.74601 9.42101H3.72568C3.72935 9.41452 3.73325 9.4078 3.73692 9.40134C3.52633 8.95441 3.07139 8.64434 2.54554 8.64434C2.19093 8.64434 1.86878 8.78509 1.63198 9.01408C1.51243 9.12955 1.41468 9.26749 1.34549 9.42101C1.2711 9.58576 1.22983 9.76826 1.22983 9.96004C1.22983 10.6857 1.82012 11.276 2.54554 11.276Z" fill="#999999"/>
<path id="Vector_5" d="M9.33691 8.26888C8.94101 8.30867 8.42642 8.33699 7.81342 8.33699C6.50203 8.33699 5.68968 8.20185 5.47649 8.09524C5.47757 8.0613 5.48904 7.98865 5.54653 7.85502C5.62178 7.68117 5.74393 7.47491 5.87498 7.25586C6.64343 7.82517 7.83546 7.69696 8.49279 7.7415C8.97429 7.77414 9.21583 8.02607 9.33691 8.26888Z" fill="#999999"/>
<path id="Vector_6" d="M1.82718 4.66238L2.09897 4.2922C2.27324 4.05499 2.54221 3.90624 2.83564 3.88462C3.32732 3.84831 4.11417 3.81912 4.74444 3.92873C5.31831 4.02862 5.58988 4.3947 5.7168 4.68661C5.30966 4.55946 4.75203 4.49699 4.03567 4.49699C3.18505 4.49699 2.374 4.58411 1.9662 4.636C1.92035 4.64183 1.87388 4.65048 1.82718 4.66238Z" fill="#999999"/>
</g>
</svg>
